<svg xmlns="http://www.w3.org/2000/svg" xmlns:xlink="http://www.w3.org/1999/xlink" viewBox="0 0 144 144"><g fill="#00875f"><use xlink:href="#B"/><use xlink:href="#B" x="9"/><use xlink:href="#B" x="54"/><use xlink:href="#B" x="63"/><use xlink:href="#B" x="9" y="9"/><use xlink:href="#B" x="18" y="9"/><use xlink:href="#B" x="27" y="9"/><use xlink:href="#B" x="36" y="9"/><use xlink:href="#B" x="45" y="9"/><use xlink:href="#B" x="54" y="9"/><use xlink:href="#B" x="9" y="18"/><use xlink:href="#B" x="18" y="18"/><use xlink:href="#B" x="27" y="18"/><use xlink:href="#B" x="36" y="18"/><use xlink:href="#B" x="45" y="18"/><use xlink:href="#B" x="54" y="18"/><use xlink:href="#B" y="27"/><use xlink:href="#B" x="9" y="27"/><use xlink:href="#B" x="27" y="27"/><use xlink:href="#B" x="36" y="27"/><use xlink:href="#B" x="54" y="27"/><use xlink:href="#B" x="63" y="27"/><use xlink:href="#B" y="36"/><use xlink:href="#B" x="9" y="36"/><use xlink:href="#B" x="18" y="36"/><use xlink:href="#B" x="27" y="36"/><use xlink:href="#B" x="36" y="36"/><use xlink:href="#B" x="45" y="36"/><use xlink:href="#B" x="54" y="36"/><use xlink:href="#B" x="63" y="36"/><path d="M9.2 45.2h8.6v8.5H9.2z"/><use xlink:href="#B" x="-18" y="45"/><use xlink:href="#B" x="81" y="45"/><use xlink:href="#B" x="90" y="45"/><path d="M9.2 54.2h8.6v8.5H9.2z"/><use xlink:href="#B" x="-18" y="54"/><use xlink:href="#B" y="54"/><use xlink:href="#B" x="9" y="54"/><use xlink:href="#B" x="18" y="54"/><use xlink:href="#B" x="27" y="54"/><use xlink:href="#B" x="36" y="54"/><use xlink:href="#B" x="45" y="54"/><use xlink:href="#B" x="54" y="54"/><use xlink:href="#B" x="63" y="54"/><use xlink:href="#B" x="81" y="54"/><use xlink:href="#B" x="90" y="54"/><path d="M9.2 63.2h8.6v8.5H9.2z"/><use xlink:href="#B" x="-18" y="63"/><use xlink:href="#B" y="63"/><use xlink:href="#B" x="9" y="63"/><use xlink:href="#B" x="18" y="63"/><use xlink:href="#B" x="27" y="63"/><use xlink:href="#B" x="36" y="63"/><use xlink:href="#B" x="45" y="63"/><use xlink:href="#B" x="63" y="63"/><use xlink:href="#B" x="81" y="63"/><use xlink:href="#B" x="90" y="63"/><path d="M9.2 72.2h8.6v8.5H9.2z"/><use xlink:href="#B" x="-18" y="72"/><use xlink:href="#B" y="72"/><use xlink:href="#B" x="9" y="72"/><use xlink:href="#B" x="18" y="72"/><use xlink:href="#B" x="27" y="72"/><use xlink:href="#B" x="36" y="72"/><use xlink:href="#B" x="54" y="72"/><use xlink:href="#B" x="63" y="72"/><use xlink:href="#B" x="81" y="72"/><use xlink:href="#B" x="90" y="72"/><path d="M9.2 81.2h8.6v8.5H9.2z"/><use xlink:href="#B" x="-18" y="81"/><use xlink:href="#B" y="81"/><use xlink:href="#B" x="9" y="81"/><use xlink:href="#B" x="27" y="81"/><use xlink:href="#B" x="45" y="81"/><use xlink:href="#B" x="54" y="81"/><use xlink:href="#B" x="63" y="81"/><use xlink:href="#B" x="81" y="81"/><use xlink:href="#B" x="90" y="81"/><path d="M9.2 90.2h8.6v8.5H9.2z"/><use xlink:href="#B" x="-18" y="90"/><use xlink:href="#B" y="90"/><use xlink:href="#B" x="9" y="90"/><use xlink:href="#B" x="18" y="90"/><use xlink:href="#B" x="36" y="90"/><use xlink:href="#B" x="45" y="90"/><use xlink:href="#B" x="54" y="90"/><use xlink:href="#B" x="63" y="90"/><use xlink:href="#B" x="81" y="90"/><use xlink:href="#B" x="90" y="90"/><use xlink:href="#B" y="99"/><use xlink:href="#B" x="9" y="99"/><use xlink:href="#B" x="18" y="99"/><use xlink:href="#B" x="27" y="99"/><use xlink:href="#B" x="36" y="99"/><use xlink:href="#B" x="45" y="99"/><use xlink:href="#B" x="54" y="99"/><use xlink:href="#B" x="63" y="99"/><use xlink:href="#B" y="108"/><use xlink:href="#B" x="9" y="108"/><use xlink:href="#B" x="18" y="108"/><use xlink:href="#B" x="27" y="108"/><use xlink:href="#B" x="36" y="108"/><use xlink:href="#B" x="45" y="108"/><use xlink:href="#B" x="54" y="108"/><use xlink:href="#B" x="63" y="108"/><use xlink:href="#B" x="9" y="117"/><use xlink:href="#B" x="18" y="117"/><use xlink:href="#B" x="45" y="117"/><use xlink:href="#B" x="54" y="117"/><use xlink:href="#B" x="9" y="126"/><use xlink:href="#B" x="18" y="126"/><use xlink:href="#B" x="45" y="126"/><use xlink:href="#B" x="54" y="126"/><use xlink:href="#B" x="9" y="135"/><use xlink:href="#B" x="18" y="135"/><use xlink:href="#B" x="45" y="135"/><use xlink:href="#B" x="54" y="135"/></g><defs ><path id="B" d="M36.2.2h8.6v8.5h-8.6z"/></defs></svg>
